<?xml version="1.0" encoding="utf-8"?>
<svg viewBox="500 0 500 500" width="500" height="500" xmlns="http://www.w3.org/2000/svg">
  <g transform="matrix(1, 0, 0, 1, -749.784058, 663.77002)">
    <title>curseforge</title>
    <rect width="500" height="500" style="fill: rgb(75, 86, 88);" rx="76.908" ry="76.908" x="1249.784" y="-663.77"/>
    <path id="shape0" fill-rule="evenodd" d="M 1289.284 -497.311 L 1406.949 -496.991 L 1399.861 -526.389 L 1710.284 -526.389 L 1710.217 -492.107 C 1657.608 -481.622 1620.45 -455.776 1604.253 -373.419 L 1592.555 -373.419 L 1585.901 -355.071 L 1595.61 -355.071 L 1612.411 -301.152 L 1449.078 -301.152 L 1465.57 -355.071 L 1475.357 -355.071 L 1468.428 -373.419 L 1456.79 -373.419 L 1435.107 -431.311 C 1346.195 -436.543 1300.544 -455.233 1289.284 -497.311 Z M 1536.28 -361.96 C 1523.307 -385.622 1514.786 -367 1488.102 -391.213 C 1477.693 -400.658 1473.543 -428.339 1496.931 -436.8 C 1486.297 -413.337 1513.89 -403.735 1520.461 -417.15 C 1523.445 -423.25 1527.209 -434.494 1516.335 -442.206 C 1510.476 -446.361 1508.22 -458.672 1513.232 -465.521 C 1514.849 -460.428 1519.943 -454.99 1529.717 -459.03 C 1509.011 -493.299 1542.066 -505.106 1557.967 -503.573 C 1541.259 -501.718 1532.605 -486.833 1540.203 -470.627 C 1545.044 -460.306 1552.414 -455.224 1554.557 -446.782 C 1547.422 -446.246 1545.358 -442.963 1545.507 -436.838 C 1545.621 -432.25 1556.24 -425.62 1557.924 -438.712 C 1562.87 -428.508 1556.911 -422.508 1553.66 -417.672 C 1546.159 -406.509 1553.222 -394.895 1562.543 -403.752 C 1566.558 -407.57 1569.341 -414.617 1564.243 -426.138 C 1573.626 -418.661 1583.21 -398.587 1568.065 -381.194 C 1560.673 -372.703 1538.806 -375.338 1536.28 -361.96 Z" style="fill: rgb(255, 255, 255);"/>
  </g>
</svg>