<?xml version="1.0" encoding="utf-8"?>
<svg viewBox="1500 0 500 500" width="500" height="500" xmlns="http://www.w3.org/2000/svg">
  <g transform="matrix(1, 0, 0, 1, 250.215942, 66.376999)">
    <title>discord</title>
    <rect width="500" height="500" style="fill: rgb(75, 86, 88);" rx="76.908" ry="76.908" x="1249.784" y="-66.377"/>
    <path d="M 1645.912 47.969 C 1618.659 35.218 1589.52 25.952 1559.056 20.675 C 1555.315 27.44 1550.944 36.538 1547.93 43.775 C 1515.546 38.905 1483.459 38.905 1451.671 43.775 C 1448.657 36.538 1444.187 27.44 1440.412 20.675 C 1409.915 25.952 1380.743 35.253 1353.49 48.037 C 1298.523 131.1 1283.622 212.1 1291.072 291.95 C 1327.53 319.176 1362.861 335.714 1397.597 346.537 C 1406.173 334.733 1413.822 322.186 1420.412 308.962 C 1407.862 304.194 1395.842 298.309 1384.484 291.477 C 1387.498 289.245 1390.445 286.911 1393.292 284.51 C 1462.565 316.91 1537.831 316.91 1606.275 284.51 C 1609.156 286.911 1612.103 289.245 1615.083 291.477 C 1603.692 298.342 1591.639 304.227 1579.09 308.996 C 1585.679 322.186 1593.295 334.767 1601.904 346.57 C 1636.673 335.748 1672.038 319.21 1708.495 291.95 C 1717.237 199.384 1693.561 119.127 1645.912 47.969 Z M 1429.849 242.843 C 1409.054 242.843 1392.001 223.43 1392.001 199.789 C 1392.001 176.149 1408.69 156.702 1429.849 156.702 C 1451.009 156.702 1468.061 176.115 1467.697 199.789 C 1467.73 223.43 1451.009 242.843 1429.849 242.843 Z M 1569.719 242.843 C 1548.924 242.843 1531.87 223.43 1531.87 199.789 C 1531.87 176.149 1548.559 156.702 1569.719 156.702 C 1590.878 156.702 1607.931 176.115 1607.567 199.789 C 1607.567 223.43 1590.878 242.843 1569.719 242.843 Z" fill-rule="nonzero" style="fill: rgb(255, 255, 255);"/>
  </g>
</svg>