<?xml version="1.0" encoding="utf-8"?>
<svg viewBox="1000 0 500 500" width="500" height="500" xmlns="http://www.w3.org/2000/svg">
  <g transform="matrix(1, 0, 0, 1, -249.784058, 66.376999)">
    <title>github</title>
    <rect width="500" height="500" style="fill: rgb(75, 86, 88);" rx="76.908" ry="76.908" x="1249.784" y="-66.377"/>
    <path d="M 1499.784 -26.877 C 1383.553 -26.877 1289.284 69.757 1289.284 188.945 C 1289.284 284.302 1349.592 365.198 1433.248 393.742 C 1443.756 395.738 1447.159 389.047 1447.159 383.363 L 1447.159 343.185 C 1388.604 356.242 1376.414 317.718 1376.414 317.718 C 1366.836 292.773 1353.03 286.136 1353.03 286.136 C 1333.927 272.737 1354.486 273.025 1354.486 273.025 C 1375.624 274.535 1386.745 295.273 1386.745 295.273 C 1405.516 328.258 1435.985 318.725 1448.001 313.205 C 1449.877 299.265 1455.333 289.734 1461.368 284.356 C 1414.619 278.87 1365.467 260.364 1365.467 177.686 C 1365.467 154.107 1373.695 134.863 1387.149 119.755 C 1384.974 114.306 1377.764 92.346 1389.202 62.635 C 1389.202 62.635 1406.884 56.843 1447.106 84.757 C 1463.894 79.973 1481.891 77.581 1499.784 77.49 C 1517.676 77.581 1535.692 79.973 1552.515 84.757 C 1592.702 56.843 1610.349 62.635 1610.349 62.635 C 1621.804 92.364 1614.594 114.324 1612.419 119.755 C 1625.926 134.863 1634.083 154.126 1634.083 177.686 C 1634.083 260.579 1584.844 278.834 1537.972 284.176 C 1545.514 290.866 1552.409 303.995 1552.409 324.138 L 1552.409 383.363 C 1552.409 389.101 1555.777 395.846 1566.459 393.723 C 1650.045 365.145 1710.284 284.265 1710.284 188.945 C 1710.284 69.757 1616.033 -26.877 1499.784 -26.877 Z" style="fill: rgb(255, 255, 255);"/>
  </g>
</svg>