<?xml version="1.0" encoding="utf-8"?>
<svg viewBox="2500 0 500 500" width="500" height="500" xmlns="http://www.w3.org/2000/svg">
  <g transform="matrix(1, 0, 0, 1, 1250.215942, 66.376999)">
    <title>gradle</title>
    <rect width="500" height="500" style="fill: rgb(75, 86, 88);" rx="76.908" ry="76.908" x="1249.784" y="-66.377"/>
    <path class="cls-1" d="M 1687.394 30.183 C 1661.947 4.733 1620.907 4.029 1594.601 28.592 C 1591.925 31.138 1591.925 35.406 1594.601 37.951 L 1602.651 46.186 C 1604.899 48.423 1608.451 48.663 1610.98 46.748 C 1634.002 28.358 1668.299 41.787 1672.715 70.921 C 1674.595 83.331 1670.271 95.876 1661.143 104.492 C 1608.126 157.462 1537.373 8.938 1376.777 85.494 C 1365.313 91 1360.995 105.12 1367.418 116.096 L 1394.979 163.685 C 1400.919 174.018 1414.077 177.63 1424.46 171.781 L 1425.115 171.407 L 1424.6 171.781 L 1436.673 165.043 C 1450.286 156.591 1463.153 146.995 1475.137 136.358 C 1477.588 134.124 1481.299 134.006 1483.887 136.078 C 1486.76 138.486 1486.892 142.86 1484.169 145.436 C 1471.555 156.797 1457.964 167.023 1443.552 175.993 L 1443.13 175.993 L 1430.917 182.825 C 1425.759 185.721 1419.941 187.236 1414.025 187.223 C 1401.554 187.268 1390.01 180.648 1383.749 169.862 L 1357.685 124.894 C 1307.85 160.363 1277.246 228.495 1293.811 314.783 C 1294.372 317.783 1296.983 319.961 1300.035 319.978 L 1329.421 319.978 C 1332.781 320.064 1335.63 317.523 1335.926 314.175 C 1340.308 280.998 1378.962 265.007 1405.501 285.391 C 1414.635 292.405 1420.611 302.758 1422.119 314.175 C 1422.499 317.351 1425.192 319.743 1428.39 319.744 L 1457.121 319.744 C 1460.312 319.721 1462.993 317.34 1463.392 314.175 C 1467.775 280.998 1506.428 265.007 1532.967 285.391 C 1542.101 292.405 1548.078 302.758 1549.586 314.175 C 1549.985 317.34 1552.666 319.721 1555.857 319.744 L 1584.401 319.744 C 1587.879 319.744 1590.713 316.951 1590.765 313.473 C 1591.42 273.23 1602.276 226.998 1633.207 203.835 C 1740.365 123.678 1712.194 54.984 1687.394 30.183 Z M 1578.13 151.238 L 1557.682 140.991 C 1557.672 131.121 1568.352 124.943 1576.904 129.871 C 1584.908 134.482 1585.556 145.79 1578.13 151.286 L 1578.13 151.238 Z" style="fill: rgb(255, 255, 255);"/>
  </g>
</svg>