<?xml version="1.0" encoding="utf-8"?>
<svg viewBox="2000 0 500 500" width="500" height="500" xmlns="http://www.w3.org/2000/svg">
  <g transform="matrix(1, 0, 0, 1, 750.215942, 66.376999)">
    <title>maven</title>
    <rect width="500" height="500" style="fill: rgb(75, 86, 88);" rx="76.908" ry="76.908" x="1249.784" y="-66.377"/>
    <path d="M 1383.959 -26.856 C 1378.49 -27.081 1372.307 -25.615 1369.443 -18.855 C 1366.664 -12.295 1364.476 1.971 1363.475 21.062 L 1384.943 31.461 C 1384.587 17.794 1385.093 4.924 1386.469 -6.756 C 1386.032 -2.912 1385.124 9.161 1386.372 30.948 C 1386.705 36.941 1387.228 43.693 1387.907 51.155 C 1387.949 51.575 1387.945 51.949 1388.039 52.33 C 1388.659 58.839 1389.463 65.844 1390.479 73.512 C 1391.342 80.11 1392.312 87.091 1393.505 94.63 C 1394.476 101.08 1395.654 107.836 1396.877 114.993 L 1396.711 115.149 C 1396.94 115.339 1396.978 115.502 1396.961 115.606 C 1397.127 116.57 1397.3 117.437 1397.467 118.404 C 1398.021 121.25 1398.513 124.137 1399.11 127.048 C 1399.72 130.22 1400.371 133.44 1401.009 136.77 C 1401.325 138.438 1401.643 140.115 1402.004 141.838 C 1403.047 146.954 1404.177 152.188 1405.331 157.58 C 1406.766 164.215 1408.322 171.022 1410 178.11 C 1411.58 184.82 1413.279 191.812 1415.057 198.918 C 1416.779 205.704 1418.523 212.643 1420.447 219.821 C 1422.131 226.184 1423.947 232.718 1425.791 239.418 C 1425.844 239.74 1425.999 240.08 1426.055 240.402 C 1427.909 246.999 1429.84 253.81 1431.854 260.741 C 1431.867 260.897 1431.916 261.05 1431.999 261.186 C 1432.307 262.225 1432.578 263.195 1432.886 264.235 C 1434.238 268.827 1435.656 273.58 1437.122 278.356 C 1435.368 277.635 1433.642 276.844 1431.951 275.989 C 1430.845 272.172 1429.75 268.356 1428.662 264.533 C 1428.294 263.175 1427.919 261.909 1427.556 260.548 L 1427.507 260.502 L 1427.424 260.467 C 1425.895 255.192 1424.488 249.845 1422.932 244.413 C 1422.54 242.891 1422.156 241.37 1421.719 239.789 C 1419.895 232.988 1418.086 226.087 1416.232 219.128 C 1414.485 212.393 1412.786 205.645 1411.14 198.883 C 1409.477 192.054 1407.872 185.188 1406.267 178.314 C 1404.645 171.302 1403.099 164.27 1401.633 157.221 C 1400.146 150.263 1398.77 143.21 1397.38 136.268 C 1396.884 133.751 1396.42 131.232 1395.99 128.705 C 1395.19 124.407 1394.451 120.075 1393.71 115.738 C 1393.637 115.517 1393.623 115.247 1393.553 115.028 L 1375.194 105.663 L 1393.613 114.993 C 1392.617 108.217 1391.561 101.472 1390.552 94.796 C 1389.575 87.788 1388.674 80.766 1387.838 73.736 C 1387.023 66.697 1386.368 59.64 1385.866 52.569 C 1385.824 52.167 1385.8 51.761 1385.796 51.359 C 1385.325 44.726 1385.006 38.085 1384.836 31.437 L 1363.416 21.111 C 1363.375 22.412 1363.27 23.748 1363.212 25.146 C 1362.983 30.584 1362.848 36.022 1362.803 41.464 C 1362.751 47.925 1362.806 54.66 1362.924 61.72 C 1363.077 68.209 1363.34 74.98 1363.69 81.868 C 1364.039 87.76 1364.428 93.722 1364.906 99.791 C 1364.917 100.055 1364.952 100.214 1364.965 100.477 L 1365.062 100.523 C 1365.1 100.938 1365.188 101.403 1365.166 101.857 C 1365.742 108.307 1366.303 114.868 1367.066 121.451 C 1367.815 128.14 1368.653 134.837 1369.648 141.613 C 1370.491 147.322 1371.402 152.995 1372.348 158.721 C 1372.542 159.844 1372.781 161.029 1372.972 162.156 C 1374.286 169.241 1375.69 176.083 1377.211 182.47 C 1378.916 189.721 1380.732 196.522 1382.576 202.858 C 1383.817 207.011 1385.03 211.004 1386.275 214.792 C 1387.352 217.984 1388.527 221.19 1389.661 224.337 C 1392.385 231.744 1395.404 238.929 1398.655 245.948 L 1398.752 245.997 C 1398.836 246.305 1398.95 246.607 1399.085 246.898 C 1403.054 255.38 1407.425 263.573 1412.329 271.368 C 1412.503 271.601 1412.666 271.937 1412.835 272.172 C 1404.878 268.97 1390.773 270.45 1390.874 270.467 C 1405.431 275.518 1418.204 281.711 1426.259 291.084 C 1423.057 294.609 1417.067 297.28 1409.532 299.465 C 1419.948 300.591 1425.753 298.768 1427.878 297.842 C 1422.436 302.379 1419.396 310.674 1416.724 319.599 C 1422.852 309.585 1428.924 302.958 1434.845 300.424 C 1436.203 304.938 1437.683 309.613 1439.129 314.244 C 1426.377 339.14 1413.345 365.912 1400.107 394.123 C 1403.678 393.645 1406.063 391.578 1407.661 388.65 C 1409.924 383.721 1422.298 357.431 1441.122 320.701 C 1448.369 343.556 1456.556 367.68 1465.422 392.743 C 1467.373 390.227 1467.596 387.44 1466.781 384.601 C 1465.062 379.87 1455.662 353.067 1443.898 315.384 C 1446.57 310.191 1449.475 304.663 1452.387 299.114 C 1454.796 299.894 1457.159 300.826 1459.457 301.901 C 1462.874 305.19 1465.364 310.562 1467.585 316.511 C 1468.171 309.679 1466.333 302.903 1461.752 297.229 C 1485.172 301.752 1506.447 298.791 1519.427 283.025 C 1520.599 281.565 1521.708 280.061 1522.754 278.512 C 1517.056 283.843 1510.797 285.593 1499.715 283.299 C 1517.191 278.363 1526.474 272.471 1535.447 261.871 C 1537.721 259.164 1539.881 256.367 1541.929 253.487 C 1525.403 266.148 1508.145 267.865 1491.068 262.11 C 1490.839 261.993 1490.594 261.962 1490.277 261.833 C 1506.312 262.186 1528.928 253.49 1544.525 240.94 C 1551.707 235.162 1558.479 228.157 1565.055 219.703 C 1569.977 213.423 1574.683 206.362 1579.439 198.39 C 1583.536 191.489 1587.643 183.927 1591.688 175.687 C 1587.82 177.035 1583.455 177.816 1578.742 178.124 L 1576.222 178.256 C 1575.38 178.301 1574.562 178.26 1573.64 178.291 C 1589.15 174.817 1599.961 165.32 1608.616 152.923 C 1604.398 154.971 1597.608 157.473 1589.847 158.083 C 1588.835 158.183 1587.75 158.198 1586.669 158.205 C 1586.423 158.17 1586.163 158.205 1585.837 158.157 C 1591.21 156.777 1595.882 155.047 1600.055 152.742 C 1600.953 152.292 1601.781 151.748 1602.612 151.203 C 1603.896 150.392 1605.119 149.494 1606.332 148.586 C 1607.094 147.948 1607.843 147.387 1608.602 146.75 C 1610.374 145.214 1612.013 143.53 1613.5 141.72 C 1614.006 141.124 1614.508 140.608 1614.932 140.005 C 1615.562 139.092 1616.179 138.271 1616.72 137.433 C 1619.06 134.099 1621.257 130.67 1623.312 127.153 C 1624.134 125.759 1624.923 124.345 1625.69 122.916 C 1625.936 122.369 1626.248 121.914 1626.49 121.367 C 1627.212 119.891 1627.908 118.571 1628.414 117.396 C 1629.166 115.672 1629.704 114.255 1630.022 113.215 C 1629.43 113.582 1628.799 113.881 1628.137 114.106 C 1623.351 116.068 1615.406 117.412 1609.118 117.659 C 1609.039 117.645 1608.963 117.623 1608.866 117.694 C 1608.515 117.694 1608.1 117.721 1607.701 117.728 C 1620.297 113.968 1626.404 109.791 1632.639 103.344 C 1634.313 101.59 1636.009 99.677 1637.721 97.68 C 1642.933 91.695 1648.157 85.036 1652.895 78.312 C 1657.515 71.823 1661.723 65.363 1664.999 59.508 C 1667.134 55.737 1668.894 52.244 1670.27 49.113 C 1671.352 46.514 1672.35 43.879 1673.258 41.211 C 1664.607 41.391 1655.952 41.394 1647.3 41.225 C 1655.983 41.394 1665.116 41.346 1673.355 41.142 C 1682.097 15.084 1674.426 1.459 1674.426 1.459 C 1674.426 1.459 1665.216 -19.813 1649.869 -13.48 C 1642.417 -10.406 1629.305 -0.656 1613.333 13.919 L 1622.362 39.326 C 1632.934 28.043 1643.561 18.099 1653.949 9.791 C 1650.548 12.543 1640.227 21.53 1623.923 40.061 C 1619.424 45.148 1614.484 51.006 1609.105 57.553 C 1608.803 57.924 1608.498 58.212 1608.276 58.597 C 1603.601 64.33 1598.685 70.613 1593.414 77.591 C 1588.867 83.591 1584.093 89.982 1579.065 96.994 C 1574.721 102.962 1570.316 109.34 1565.616 116.071 L 1565.343 116.061 C 1565.377 116.4 1565.266 116.557 1565.172 116.626 C 1564.542 117.531 1564.005 118.373 1563.374 119.281 C 1561.554 122.012 1559.654 124.736 1557.824 127.55 C 1555.797 130.587 1553.752 133.707 1551.616 136.892 C 1550.553 138.486 1549.478 140.081 1548.401 141.755 C 1545.173 146.701 1541.936 151.806 1538.577 157.064 C 1534.324 163.771 1530.14 170.519 1526.019 177.306 C 1521.815 184.197 1517.663 191.115 1513.556 198.064 C 1509.556 204.896 1505.441 211.877 1501.286 219.187 C 1497.587 225.644 1493.851 232.347 1490.01 239.199 C 1489.803 239.504 1489.661 239.896 1489.445 240.198 C 1485.703 246.981 1481.845 254.003 1477.956 261.186 C 1477.852 261.337 1477.74 261.49 1477.717 261.652 C 1477.142 262.738 1476.576 263.743 1476.001 264.824 C 1473.017 270.388 1469.929 276.089 1466.899 281.978 C 1466.885 282.061 1466.791 282.137 1466.781 282.221 C 1466.32 283.07 1465.883 283.833 1465.506 284.695 C 1463.471 288.553 1461.624 292.234 1457.631 299.932 C 1456.4 298.743 1455.048 297.693 1453.596 296.795 C 1455.669 292.855 1457.392 289.426 1459.575 285.333 C 1460.386 283.784 1461.274 282.241 1462.095 280.613 C 1462.331 280.148 1462.556 279.771 1462.792 279.303 C 1465.88 273.59 1469.075 267.718 1472.371 261.702 C 1473.162 260.315 1473.856 259.005 1474.642 257.618 L 1474.657 257.536 L 1474.621 257.438 C 1477.578 251.986 1480.693 246.559 1483.758 240.954 C 1484.648 239.418 1485.543 237.879 1486.444 236.261 C 1490.378 229.335 1494.402 222.348 1498.44 215.273 C 1502.385 208.463 1506.384 201.683 1510.436 194.931 C 1514.52 188.114 1518.682 181.316 1522.848 174.509 C 1527.122 167.553 1531.454 160.686 1535.877 153.834 C 1540.206 147.051 1544.698 140.292 1549.096 133.603 C 1550.705 131.169 1552.306 128.819 1553.994 126.4 C 1556.764 122.303 1559.61 118.223 1562.462 114.141 C 1562.576 113.909 1562.777 113.69 1562.891 113.454 L 1555.291 90.536 L 1562.975 113.469 C 1567.561 107.222 1572.066 100.959 1576.555 94.786 C 1581.432 88.249 1586.281 81.882 1591.109 75.671 C 1596.134 69.241 1601.213 63.071 1606.343 57.072 C 1606.651 56.701 1606.953 56.319 1607.243 56.029 C 1612.269 50.181 1617.254 44.591 1622.29 39.242 L 1613.261 13.909 C 1612.193 14.917 1611.046 15.912 1609.884 16.997 C 1605.379 21.187 1600.946 25.454 1596.582 29.794 C 1591.407 34.951 1586.104 40.432 1580.589 46.206 C 1575.557 51.554 1570.399 57.217 1565.211 63.041 C 1560.805 68.062 1556.382 73.154 1551.942 78.419 C 1551.741 78.642 1551.637 78.8 1551.436 79.022 L 1551.484 79.154 C 1551.187 79.518 1550.878 79.941 1550.5 80.295 C 1545.838 85.944 1541.083 91.663 1536.467 97.573 C 1531.714 103.59 1527.067 109.69 1522.525 115.867 C 1518.676 121.138 1514.869 126.441 1511.109 131.776 C 1510.37 132.837 1509.625 133.974 1508.887 135.03 C 1504.311 141.778 1500.01 148.406 1496.159 154.759 C 1491.768 161.948 1487.83 168.87 1484.284 175.435 C 1482.059 179.586 1479.89 183.77 1477.775 187.982 C 1476.109 191.403 1474.514 194.92 1472.926 198.356 C 1469.235 206.48 1465.946 214.66 1462.986 222.895 L 1463.021 223.002 C 1462.843 223.322 1462.695 223.658 1462.576 224.001 C 1460.688 229.315 1458.99 234.663 1457.451 240.032 C 1454.986 243.082 1452.137 245.796 1448.972 248.111 C 1448.231 247.189 1447.44 246.396 1446.657 245.529 C 1453.926 235.033 1459.606 220.293 1461.173 206.663 C 1462.102 198.567 1462.009 189.95 1460.895 180.547 C 1460.091 173.542 1458.677 166.174 1456.719 158.205 C 1454.875 150.825 1452.74 143.522 1450.317 136.317 C 1448.723 139.568 1446.463 142.764 1443.691 145.886 C 1443.188 146.434 1442.678 146.982 1442.178 147.529 C 1441.676 148.08 1441.139 148.573 1440.581 149.162 C 1448.182 137.342 1449.08 124.653 1446.824 111.475 C 1445.441 115.385 1442.727 121.173 1438.228 126.375 C 1437.614 127.087 1436.969 127.773 1436.293 128.428 C 1436.12 128.556 1435.989 128.736 1435.753 128.91 C 1438.276 124.706 1440.141 120.716 1441.336 116.674 C 1441.624 115.832 1441.801 114.976 1441.985 114.116 C 1442.276 112.806 1442.515 111.482 1442.706 110.151 C 1442.789 109.281 1442.913 108.47 1442.994 107.597 C 1443.153 105.531 1443.136 103.451 1442.945 101.389 C 1442.893 100.706 1442.89 100.075 1442.778 99.434 C 1442.612 98.466 1442.491 97.555 1442.31 96.696 C 1441.712 93.143 1440.965 89.618 1440.075 86.128 C 1439.725 84.741 1439.344 83.358 1438.935 81.986 C 1438.751 81.49 1438.675 81.008 1438.492 80.509 C 1438.024 79.133 1437.642 77.879 1437.229 76.824 C 1436.768 75.588 1436.238 74.377 1435.646 73.196 C 1435.499 73.795 1435.288 74.377 1435.011 74.926 C 1433.215 79.136 1429.053 84.904 1425.247 88.963 C 1425.188 89.004 1425.132 89.053 1425.116 89.154 C 1424.897 89.368 1424.648 89.638 1424.409 89.885 C 1429.992 79.701 1431.244 73.283 1431.167 65.356 C 1431.119 63.113 1431.012 60.871 1430.845 58.631 C 1430.384 51.39 1429.559 44.178 1428.37 37.021 C 1427.247 30.068 1425.861 23.396 1424.287 17.68 C 1423.288 13.978 1422.232 10.682 1421.154 7.857 C 1420.225 5.545 1419.22 3.268 1418.142 1.025 C 1410.568 8.82 1401.477 17.684 1393.657 24.678 C 1401.477 17.68 1410.568 8.803 1418.152 0.928 C 1407.47 -20.894 1394.174 -24.703 1394.174 -24.703 C 1394.174 -24.703 1389.429 -26.63 1383.959 -26.856 Z M 1443.261 249.983 C 1443.451 250.471 1443.628 250.964 1443.811 251.448 C 1442.778 252.035 1441.766 252.645 1440.678 253.175 C 1440.459 253.248 1440.283 253.376 1440.006 253.487 C 1441.112 252.444 1442.193 251.241 1443.261 249.983 Z M 1432.633 278.342 C 1434.921 280.748 1437.066 282.765 1438.9 284.141 C 1439.209 285.146 1439.802 287.038 1440.138 288.116 C 1438.737 288.317 1437.289 288.75 1435.84 289.159 C 1435.646 288.511 1435.483 287.999 1435.288 287.347 C 1434.838 285.87 1434.436 284.345 1433.94 282.81 C 1433.802 282.37 1433.701 281.999 1433.559 281.559 C 1433.258 280.519 1432.938 279.395 1432.633 278.342 Z M 1437.292 293.867 C 1438.948 293.842 1440.512 293.902 1441.985 294.047 C 1442.47 295.586 1442.592 295.981 1443.236 298.058 C 1444.574 297.779 1446.023 297.822 1447.534 297.998 C 1445.665 301.551 1443.783 305.243 1441.901 308.888 C 1440.377 303.946 1438.879 299.142 1437.292 293.867 Z" style="fill: rgb(255, 255, 255);"/>
  </g>
</svg>