<?xml version="1.0" encoding="utf-8"?>
<svg viewBox="0 0 500 500" width="500" height="500" xmlns="http://www.w3.org/2000/svg">
  <g transform="matrix(1, 0, 0, 1, -491.190002, 665.666992)">
    <title>modrinth</title>
    <rect width="500" height="500" style="fill: rgb(75, 86, 88);" rx="76.908" ry="76.908" x="491.19" y="-665.667"/>
    <g transform="matrix(1, 0, 0, 1, 68.424057, -234.45993)">
      <path fill-rule="evenodd" clip-rule="evenodd" d="M 875.998 -126.477 C 885.363 -161.086 885.997 -198.549 876.031 -235.674 C 845.912 -347.938 730.358 -414.566 617.945 -384.487 C 531.18 -361.267 471.631 -287.222 462.833 -203.022 L 498.437 -203.022 C 506.906 -271.385 555.791 -331.081 626.514 -350.01 C 713.921 -373.404 803.614 -326.198 834.893 -243.387 L 800.242 -234.12 C 784.299 -272.643 752.173 -300.888 714.126 -312.917 L 707.762 -276.869 C 737.799 -265.793 762.164 -240.821 771.077 -207.593 C 784.069 -159.171 759.877 -109.554 715.985 -88.973 L 725.465 -53.624 C 783.156 -77.428 817.815 -137.38 809.616 -199.182 L 844.135 -208.416 C 847.836 -184.808 846.552 -161.341 840.962 -139.214 L 875.998 -126.477 Z" style="fill: rgb(255, 255, 255);"/>
      <path d="M 727.028 22.074 C 614.607 52.152 499.063 -14.476 468.935 -126.74 C 465.424 -139.838 463.228 -152.979 462.266 -166.028 L 497.846 -166.028 C 498.742 -156.235 500.476 -146.383 503.116 -136.566 C 505.879 -126.28 509.506 -116.453 513.896 -107.146 L 545.628 -126.18 C 542.954 -132.348 540.702 -138.778 538.909 -145.462 C 519.142 -219.138 562.92 -294.869 636.694 -314.612 C 650.672 -318.353 664.733 -319.809 678.464 -319.225 L 672.1 -283.168 C 663.499 -283.127 654.767 -282 646.068 -279.674 C 591.617 -265.095 559.302 -209.205 573.889 -154.82 C 574.793 -151.474 575.845 -148.209 577.047 -145.036 L 617.626 -169.382 L 605.398 -201.804 L 643.716 -241.166 L 692.147 -251.601 L 706.167 -234.342 L 683.842 -211.729 L 664.371 -205.604 L 650.459 -191.304 L 657.275 -172.334 C 657.275 -172.334 671.081 -157.666 671.105 -157.657 L 690.61 -162.846 L 704.489 -178.09 L 734.799 -187.687 L 743.826 -167.377 L 712.556 -129.034 L 660.153 -112.44 L 636.653 -138.605 L 595.687 -114.027 C 616.688 -90.116 648.263 -76.837 680.997 -79.607 L 690.478 -44.258 C 641.627 -37.795 593.911 -58.015 564.268 -95.165 L 532.684 -76.22 C 574.3 -21.547 646.322 5.539 716.849 -13.333 C 767.615 -26.917 807.125 -61.518 828.521 -105.246 L 863.582 -92.5 C 838.182 -38.001 789.71 5.3 727.028 22.074 Z" style="fill: rgb(255, 255, 255);"/>
    </g>
  </g>
</svg>